<svg width="30" height="30" viewBox="0 0 30 30" fill="none" xmlns="http://www.w3.org/2000/svg">
<path fill-rule="evenodd" clip-rule="evenodd" d="M9 0C6.61305 0 4.32387 0.948212 2.63604 2.63604C0.948212 4.32387 0 6.61305 0 9L0 21C0 23.3869 0.948212 25.6761 2.63604 27.364C4.32387 29.0518 6.61305 30 9 30H21C23.3869 30 25.6761 29.0518 27.364 27.364C29.0518 25.6761 30 23.3869 30 21V9C30 6.61305 29.0518 4.32387 27.364 2.63604C25.6761 0.948212 23.3869 0 21 0L9 0ZM8 15C8 13.1435 8.7375 11.363 10.0503 10.0503C11.363 8.7375 13.1435 8 15 8C16.8565 8 18.637 8.7375 19.9497 10.0503C21.2625 11.363 22 13.1435 22 15C22 16.8565 21.2625 18.637 19.9497 19.9497C18.637 21.2625 16.8565 22 15 22C13.1435 22 11.363 21.2625 10.0503 19.9497C8.7375 18.637 8 16.8565 8 15ZM22 8H24V6H22V8Z" fill="#0167B0"/>
</svg>
