<svg id="Layer_1" data-name="Layer 1" xmlns="http://www.w3.org/2000/svg" xmlns:xlink="http://www.w3.org/1999/xlink" viewBox="0 0 2000 845"><defs><style>.cls-1{fill:url(#linear-gradient);}.cls-2{fill:url(#linear-gradient-2);}.cls-3{fill:url(#linear-gradient-3);}.cls-4{fill:url(#linear-gradient-4);}.cls-5{fill:url(#linear-gradient-5);}.cls-6{fill:url(#linear-gradient-6);}.cls-7{fill:url(#linear-gradient-7);}</style><linearGradient id="linear-gradient" x1="1598.15" y1="720.56" x2="1975.51" y2="720.56" gradientUnits="userSpaceOnUse"><stop offset="0" stop-color="#0071bc"/><stop offset="1" stop-color="#0b0e4c"/></linearGradient><linearGradient id="linear-gradient-2" x1="754.83" y1="185.59" x2="1304.64" y2="185.59" xlink:href="#linear-gradient"/><linearGradient id="linear-gradient-3" x1="754.27" y1="653.84" x2="1304.71" y2="653.84" xlink:href="#linear-gradient"/><linearGradient id="linear-gradient-4" x1="1342.26" y1="462.94" x2="671.43" y2="375.52" xlink:href="#linear-gradient"/><linearGradient id="linear-gradient-5" x1="1419.44" y1="423.23" x2="1687.84" y2="423.23" xlink:href="#linear-gradient"/><linearGradient id="linear-gradient-6" x1="24.49" y1="112.31" x2="425.92" y2="112.31" xlink:href="#linear-gradient"/><linearGradient id="linear-gradient-7" x1="297.58" y1="422.65" x2="732.71" y2="422.65" xlink:href="#linear-gradient"/></defs><path class="cls-1" d="M1603.8,619.19h215.48s153.53-8.08,156.23,202l-304.83.76s-96.5-44.77-66.88-185.72"/><path class="cls-2" d="M756.14,233.57c-7.52-20.33,19.52-66.19,29.17-81.65,38.27-61.34,105.36-93,175.27-102.47,61.71-8.36,125.84,1.85,188.26-2.48C1200,43.43,1256.45,41,1304.64,22c-1.31.52-4.18,23.55-4.73,25.65a196.06,196.06,0,0,1-26.67,58.92c-29.77,44.35-79,73.28-130,86.61a249.6,249.6,0,0,1-80.76,7.83c-31.32-2.25-117.39-13.06-156.31,49.09C887.53,280,935.64,353.82,977,347.77,977,347.78,806.67,370.2,756.14,233.57Z"/><path class="cls-3" d="M1115.59,486.3c30.44,3,52,55.85,53.31,81.9,2,40.46-41.13,63.19-75,72.38-35.65,9.67-66.94,1.57-102.49-.72-68-4.37-142.6,9.72-189.49,63.27A182.07,182.07,0,0,0,771,753.87c-2.94,7.12-15.17,67.07-16.7,67.52.06,0,127.32-37.44,252.72-26.21a446.27,446.27,0,0,0,117.36-4.71c81.72-14.53,153.71-72,176.29-154,17-61.68-21.19-105.86-77.21-127.44C1189.12,495.76,1152,489.83,1115.59,486.3Z"/><path class="cls-4" d="M756,216s-54.15,320.61,359.57,276.62c0,0,164.74-2,189.07,136,0,0,74.88-291.89-308.88-299.89C995.76,328.68,853,368,756,216"/><path class="cls-5" d="M1421.19,32c0-11.92,77.25-6.45,83.51-5,68.42,16.17,94.73,85.33,101.9,148.69,10.29,91-1.3,186.33.28,278.1,1.34,77.86-4.58,158.69,2.21,236.08,4.47,51,21.9,114.77,78.75,128.6,0,0-293.59,56.57-266.65-288.2Z"/><path class="cls-6" d="M425.92,29.56s-126.45,46-111.86,165.51H24.69S12.53,57.14,180.32,29.56Z"/><path class="cls-7" d="M463.75,195.07H581s135.63-4.6,151.72-158.62L404,29.56s-100.16,50.1-106.4,158.38l.65,471.49s9.2,154,163.22,156.32Z"/></svg>