<?xml version="1.0" encoding="utf-8"?>
<!-- Generator: Adobe Illustrator 16.0.0, SVG Export Plug-In . SVG Version: 6.00 Build 0)  -->
<!DOCTYPE svg PUBLIC "-//W3C//DTD SVG 1.1//EN" "http://www.w3.org/Graphics/SVG/1.1/DTD/svg11.dtd">
<svg version="1.1" id="Layer_1" xmlns="http://www.w3.org/2000/svg" xmlns:xlink="http://www.w3.org/1999/xlink" x="0px" y="0px"
	 width="265px" height="59px" viewBox="0 0 265 59" enable-background="new 0 0 265 59" xml:space="preserve">
<g>
	<g>
		<path fill-rule="evenodd" clip-rule="evenodd" fill="#000000" d="M24.989,2.859V6.98c-3.109,0-6.17-0.13-9.215,0.029
			c-5.423,0.284-9.476,4.797-9.171,10.217h16.628v3.888H6.603c-0.217,5.23,3.584,9.642,8.667,9.995
			c3.188,0.222,6.408,0.041,9.73,0.041v4.636c-4.403-0.284-8.745-0.156-12.911-0.924c-6.316-1.165-10.727-6.802-11.058-13.72
			c-0.129-2.695,0.145-5.527,0.881-8.127C3.62,6.961,8.302,3.35,14.757,2.9C18.106,2.668,21.484,2.859,24.989,2.859"/>
		<path fill-rule="evenodd" clip-rule="evenodd" fill="#000000" d="M70,2.859v4.097c-3.043,0-6.011-0.105-8.968,0.023
			c-5.591,0.24-9.612,4.545-9.49,10.19H68.2v3.879H51.646c-0.378,5.008,3.443,9.627,8.319,9.984
			c3.261,0.237,6.557,0.047,9.981,0.047v4.706c-4.488-0.345-8.973-0.257-13.256-1.121c-6.135-1.237-10.329-6.748-10.655-13.505
			c-0.134-2.767,0.104-5.696,0.927-8.329c1.865-5.959,6.178-9.482,12.724-9.932C63.03,2.67,66.407,2.859,70,2.859"/>
		<path fill-rule="evenodd" clip-rule="evenodd" fill="#000000" d="M97.997,31.227v4.56c-4.018-0.272-7.985-0.171-11.782-0.88
			c-6.341-1.186-10.822-6.735-11.177-13.669c-0.144-2.841,0.108-5.862,0.98-8.56c1.89-5.853,6.203-9.324,12.681-9.786
			C91.747,2.675,94.83,2.856,98,2.856v4.067c-2.42,0-4.788-0.055-7.154,0.014c-5.276,0.152-8.914,2.678-9.934,7.648
			c-0.598,2.903-0.595,6.096-0.028,9.006c0.921,4.738,4.221,7.23,9.219,7.602C92.688,31.383,95.297,31.227,97.997,31.227"/>
		<polygon fill-rule="evenodd" clip-rule="evenodd" fill="#000000" points="122,6.271 113.648,6.271 113.648,35.786 108.394,35.786 
			108.394,6.454 100,6.454 100,2.786 122,2.786 		"/>
		<path fill-rule="evenodd" clip-rule="evenodd" fill="#000000" d="M30.039,2.785h4.927c0.048,0.758,0.126,1.474,0.129,2.187
			c0.013,5.475-0.021,10.949,0.033,16.422c0.014,1.566,0.151,3.153,0.437,4.692c0.601,3.208,2.676,4.979,6.014,5.252
			c1.762,0.145,3.53,0.188,5.421,0.286v4.077c-3.99,0.171-7.95,0.271-11.659-1.662c-3.784-1.973-5.169-5.339-5.256-9.166
			C29.926,17.608,30.039,10.338,30.039,2.785"/>
		<path fill-rule="evenodd" clip-rule="evenodd" fill="#000000" d="M210,35.785c-2.958-0.25-5.754-0.237-8.438-0.765
			c-5.191-1.021-8.121-4.299-8.387-10.111c-0.34-7.299-0.083-14.621-0.083-22.124h4.9c0.042,0.706,0.122,1.422,0.122,2.138
			c0.014,5.451-0.021,10.903,0.033,16.357c0.017,1.559,0.147,3.139,0.442,4.671c0.604,3.185,2.677,4.939,6.019,5.208
			c1.757,0.144,3.521,0.188,5.391,0.282V35.785z"/>
		<path fill-rule="evenodd" clip-rule="evenodd" fill="#000000" d="M129.875,35.785H124V10.418c0,0,0.235-9.63,13.394-9.631
			c0,0,0.406-0.021,1.413,0.121c2.844,0.402,11.312,4.402,6.87,15.341c-0.092,0.23-0.771,1.137-0.771,1.137l-1.875,1.722
			c0,0,3.502,1.175,3.969,6.107v10.57h-4.908v-8.803c0,0,0.473-5.76-5.403-5.76h-5.17v-4.274c0,0,6.704,0.973,9.052-1.362
			c0,0,6.277-9.222-4.874-9.427c0,0-5.34-0.029-6.056,4.965L129.875,35.785z"/>
		<path fill-rule="evenodd" clip-rule="evenodd" fill="#000000" d="M263.828,26.042c-0.148-0.824-0.362-1.613-0.629-2.327
			c-0.508-1.355-1.788-3.327-3.09-3.97c0.666,0.325,2.266-2.597,2.427-2.979c0.717-1.658,1.012-3.566,0.887-5.365
			c-0.259-3.808-2.553-7.222-5.969-8.601c-4.285-1.732-9.085-1.224-12.416,1.342c-1.918,1.472-3.271,3.384-3.829,5.765
			C241.1,10.351,241,10.795,241,11.254v25.382h5.805l-0.229-24.09c0.69-5.151,5.86-5.255,5.897-5.255
			c3.533-0.062,7.192,2.112,6.27,6.284c-1.051,4.76-6.242,4.455-10.311,4.455v4.033h5.108c5.808,0,5.343,5.765,5.343,5.765
			s-0.187,3.35-2.294,4.114c-1.489,0.54-6.089,0.274-8.098,0.274v4.419c2.468,0.25,4.948,0.131,7.161,0.051
			c2.876-0.104,4.472-0.11,6.563-2.383C263.85,32.528,264.287,28.604,263.828,26.042"/>
		<path fill-rule="evenodd" clip-rule="evenodd" fill="#000000" d="M153,18.735c0-5.613,1.632-10.009,4.895-13.188
			c3.262-3.175,7.475-4.763,12.631-4.763c3.377,0,6.422,0.746,9.137,2.237c2.711,1.492,4.78,3.572,6.203,6.242
			c1.422,2.669,2.135,5.693,2.135,9.077c0,3.432-0.748,6.499-2.246,9.206c-1.5,2.708-3.621,4.758-6.365,6.151
			c-2.748,1.39-5.709,2.086-8.891,2.086c-3.442,0-6.523-0.767-9.234-2.306c-2.714-1.538-4.768-3.639-6.165-6.299
			S153,21.706,153,18.735 M157.996,18.804c0,4.076,1.183,7.289,3.555,9.635c2.371,2.345,5.346,3.519,8.925,3.519
			c3.644,0,6.642-1.186,8.999-3.555c2.352-2.367,3.529-5.729,3.529-10.081c0-2.755-0.502-5.159-1.506-7.211
			c-1.008-2.055-2.48-3.646-4.42-4.778c-1.937-1.13-4.115-1.695-6.529-1.695c-3.428,0-6.377,1.09-8.846,3.267
			C159.229,10.079,157.996,13.712,157.996,18.804"/>
		<path fill-rule="evenodd" clip-rule="evenodd" fill="#000000" d="M235.818,13.903c-0.383-7.753-3.609-11.675-9.321-12.654
			c-8.667-1.483-14.029,3.716-14.33,14.099c-0.185,6.465-0.132,12.938-0.173,19.406c-0.006,0.285,0.087,0.569,0.133,0.854
			l4.255,0.024l0.081-14.885l0.084-4.172c-0.4-8.244,3.537-11.181,7.684-11.157c3.293,0.017,7.65,2.766,7.312,11.239l-12.922-0.07
			l-0.022,4.171l13.113,0.071l-0.08,14.88l4.154,0.021C235.824,28.352,236.177,21.103,235.818,13.903"/>
	</g>
	<g>
		<path fill="#000000" d="M4.289,42.32l3.655,6.29l3.689-6.29h1.666l-4.59,7.667v4.403h-1.53v-4.438L2.606,42.32H4.289z"/>
		<path fill="#000000" d="M18.654,54.561c-0.669,0-1.278-0.125-1.828-0.374s-1.02-0.583-1.411-1.003
			c-0.391-0.419-0.694-0.906-0.91-1.462s-0.323-1.14-0.323-1.751c0-0.623,0.111-1.213,0.332-1.768
			c0.221-0.556,0.527-1.043,0.918-1.463c0.391-0.419,0.861-0.753,1.411-1.003c0.55-0.249,1.153-0.374,1.811-0.374
			s1.264,0.125,1.819,0.374c0.555,0.25,1.029,0.584,1.419,1.003c0.391,0.42,0.697,0.907,0.918,1.463
			c0.221,0.555,0.332,1.145,0.332,1.768c0,0.611-0.107,1.195-0.323,1.751s-0.521,1.043-0.918,1.462
			c-0.397,0.42-0.87,0.754-1.419,1.003C19.932,54.436,19.323,54.561,18.654,54.561z M15.713,49.987c0,0.465,0.076,0.896,0.229,1.292
			c0.153,0.397,0.362,0.742,0.629,1.037c0.266,0.295,0.578,0.527,0.935,0.697s0.739,0.255,1.147,0.255s0.791-0.085,1.147-0.255
			s0.671-0.405,0.943-0.705c0.272-0.301,0.485-0.652,0.638-1.055s0.229-0.836,0.229-1.301c0-0.453-0.077-0.881-0.229-1.283
			s-0.366-0.754-0.638-1.054s-0.586-0.536-0.943-0.706s-0.739-0.255-1.147-0.255s-0.791,0.089-1.147,0.264
			c-0.357,0.176-0.669,0.414-0.935,0.714c-0.267,0.301-0.476,0.652-0.629,1.055C15.79,49.09,15.713,49.523,15.713,49.987z"/>
		<path fill="#000000" d="M29.279,54.561c-0.929,0-1.632-0.312-2.108-0.935c-0.476-0.624-0.714-1.553-0.714-2.788v-5.321h1.496
			v5.032c0,1.813,0.629,2.72,1.887,2.72c0.612,0,1.187-0.195,1.726-0.587c0.538-0.391,0.938-0.926,1.199-1.605v-5.56h1.496v7.038
			c0,0.352,0.159,0.533,0.476,0.544v1.292c-0.17,0.022-0.303,0.037-0.399,0.043c-0.096,0.005-0.19,0.008-0.28,0.008
			c-0.295,0-0.542-0.088-0.74-0.264s-0.303-0.394-0.314-0.654l-0.034-1.037c-0.396,0.669-0.918,1.182-1.564,1.539
			C30.758,54.382,30.05,54.561,29.279,54.561z"/>
		<path fill="#000000" d="M43.049,46.826c-0.748,0.022-1.408,0.215-1.98,0.577c-0.572,0.363-0.978,0.867-1.215,1.513v5.475h-1.496
			v-8.874h1.394v2.058c0.306-0.612,0.708-1.108,1.207-1.488c0.499-0.379,1.031-0.592,1.598-0.637c0.113,0,0.21,0,0.289,0
			s0.147,0.006,0.204,0.017V46.826z"/>
		<path fill="#000000" d="M59.998,53.404c-0.453,0.329-0.952,0.59-1.496,0.782c-0.544,0.192-1.122,0.289-1.734,0.289
			c-0.85,0-1.624-0.176-2.32-0.526c-0.697-0.352-1.295-0.811-1.793-1.378c-0.499-0.566-0.884-1.218-1.156-1.954
			c-0.272-0.737-0.408-1.49-0.408-2.262c0-0.805,0.145-1.575,0.434-2.312c0.289-0.737,0.688-1.389,1.198-1.955
			c0.51-0.567,1.114-1.018,1.811-1.352c0.697-0.334,1.454-0.502,2.27-0.502c0.85,0,1.621,0.179,2.312,0.536
			c0.691,0.356,1.286,0.824,1.785,1.402c0.499,0.578,0.884,1.232,1.156,1.963c0.272,0.731,0.408,1.477,0.408,2.236
			c0,0.815-0.145,1.589-0.434,2.32c-0.289,0.73-0.688,1.38-1.199,1.946l1.513,1.751h-1.496L59.998,53.404z M56.785,53.099
			c0.442,0,0.855-0.068,1.241-0.204c0.385-0.136,0.736-0.323,1.054-0.561l-1.615-1.888h1.496l0.918,1.071
			c0.329-0.441,0.583-0.936,0.765-1.479c0.181-0.545,0.272-1.105,0.272-1.684c0-0.611-0.099-1.204-0.297-1.776
			s-0.482-1.079-0.85-1.521s-0.805-0.793-1.309-1.054c-0.504-0.261-1.063-0.392-1.675-0.392c-0.646,0-1.224,0.136-1.734,0.408
			c-0.51,0.272-0.943,0.632-1.3,1.079c-0.357,0.448-0.632,0.955-0.825,1.521c-0.193,0.567-0.289,1.146-0.289,1.734
			c0,0.612,0.099,1.205,0.297,1.776c0.198,0.573,0.479,1.08,0.842,1.521c0.362,0.442,0.799,0.794,1.309,1.054
			C55.595,52.969,56.161,53.099,56.785,53.099z"/>
		<path fill="#000000" d="M68.65,54.561c-0.929,0-1.632-0.312-2.108-0.935c-0.476-0.624-0.714-1.553-0.714-2.788v-5.321h1.496v5.032
			c0,1.813,0.629,2.72,1.887,2.72c0.612,0,1.187-0.195,1.726-0.587c0.538-0.391,0.938-0.926,1.199-1.605v-5.56h1.496v7.038
			c0,0.352,0.159,0.533,0.476,0.544v1.292c-0.17,0.022-0.303,0.037-0.399,0.043c-0.096,0.005-0.19,0.008-0.28,0.008
			c-0.295,0-0.542-0.088-0.74-0.264s-0.303-0.394-0.314-0.654l-0.034-1.037c-0.396,0.669-0.918,1.182-1.564,1.539
			C70.129,54.382,69.421,54.561,68.65,54.561z"/>
		<path fill="#000000" d="M79.989,54.561c-0.419,0-0.81-0.07-1.173-0.213c-0.363-0.141-0.677-0.337-0.943-0.586
			c-0.267-0.249-0.476-0.541-0.629-0.875c-0.153-0.335-0.229-0.7-0.229-1.098c0-0.407,0.091-0.778,0.272-1.113
			c0.181-0.334,0.439-0.62,0.773-0.858c0.334-0.237,0.731-0.425,1.19-0.561s0.96-0.204,1.504-0.204c0.431,0,0.867,0.04,1.309,0.119
			s0.833,0.187,1.173,0.322V48.78c0-0.725-0.204-1.294-0.612-1.708c-0.408-0.414-0.986-0.621-1.734-0.621
			c-0.896,0-1.836,0.346-2.822,1.037l-0.493-0.969c1.145-0.771,2.295-1.156,3.451-1.156c1.167,0,2.077,0.313,2.729,0.936
			c0.651,0.623,0.978,1.502,0.978,2.635v3.621c0,0.352,0.159,0.533,0.476,0.544v1.292c-0.159,0.022-0.289,0.039-0.391,0.051
			s-0.21,0.018-0.323,0.018c-0.295,0-0.53-0.088-0.706-0.264c-0.176-0.176-0.281-0.389-0.314-0.638l-0.034-0.629
			c-0.397,0.532-0.898,0.938-1.504,1.216C81.33,54.422,80.681,54.561,79.989,54.561z M80.38,53.438c0.533,0,1.028-0.099,1.487-0.298
			c0.459-0.197,0.808-0.461,1.046-0.79c0.215-0.215,0.323-0.437,0.323-0.663v-1.309c-0.726-0.283-1.479-0.426-2.261-0.426
			c-0.748,0-1.357,0.159-1.828,0.477c-0.471,0.317-0.706,0.73-0.706,1.241c0,0.249,0.048,0.481,0.145,0.696
			c0.096,0.216,0.232,0.402,0.408,0.562c0.175,0.159,0.382,0.283,0.62,0.374C79.854,53.394,80.108,53.438,80.38,53.438z"/>
		<path fill="#000000" d="M88.762,41.98h1.496v10.115c0,0.329,0.088,0.586,0.264,0.773s0.422,0.28,0.74,0.28
			c0.125,0,0.272-0.02,0.442-0.06c0.17-0.039,0.329-0.088,0.476-0.145l0.238,1.207c-0.25,0.103-0.544,0.188-0.884,0.256
			c-0.34,0.067-0.641,0.102-0.901,0.102c-0.578,0-1.034-0.164-1.368-0.493c-0.334-0.329-0.501-0.788-0.501-1.377V41.98z"/>
		<path fill="#000000" d="M95.188,43.851v-1.87h1.496v1.87H95.188z M95.188,54.391v-8.874h1.496v8.874H95.188z"/>
		<path fill="#000000" d="M105.268,53.949c-0.091,0.045-0.21,0.099-0.357,0.161c-0.147,0.063-0.314,0.124-0.501,0.187
			s-0.391,0.113-0.612,0.153c-0.221,0.04-0.451,0.06-0.688,0.06c-0.544,0-1.015-0.15-1.411-0.451
			c-0.397-0.3-0.595-0.768-0.595-1.402v-5.967h-1.207v-1.173h1.207v-2.958h1.496v2.958h1.989v1.173h-1.989v5.508
			c0.022,0.329,0.13,0.567,0.323,0.715c0.192,0.146,0.419,0.221,0.68,0.221c0.295,0,0.564-0.049,0.808-0.145
			s0.411-0.173,0.501-0.229L105.268,53.949z"/>
		<path fill="#000000" d="M108.668,56.805c0.147,0.022,0.294,0.039,0.442,0.051c0.147,0.012,0.26,0.018,0.34,0.018
			c0.136,0,0.258-0.031,0.366-0.094c0.107-0.063,0.215-0.185,0.323-0.365c0.107-0.182,0.229-0.434,0.366-0.757
			c0.136-0.323,0.306-0.745,0.51-1.267l-3.757-8.874h1.547l3.026,7.531l2.754-7.531h1.428l-4.318,11.203
			c-0.159,0.396-0.422,0.745-0.791,1.046c-0.369,0.3-0.875,0.45-1.521,0.45c-0.102,0-0.207-0.006-0.314-0.017
			c-0.108-0.012-0.241-0.035-0.399-0.068V56.805z"/>
		<path fill="#000000" d="M118.477,55.768l0.34-1.513h-0.51v-1.769h1.411v1.769l-0.51,1.513H118.477z"/>
		<path fill="#000000" d="M134.644,54.476c-0.85,0-1.624-0.173-2.32-0.519s-1.295-0.805-1.793-1.377
			c-0.499-0.572-0.884-1.227-1.156-1.963c-0.272-0.737-0.408-1.49-0.408-2.262c0-0.805,0.145-1.575,0.434-2.312
			c0.289-0.737,0.688-1.389,1.198-1.955c0.51-0.567,1.114-1.018,1.811-1.352c0.697-0.334,1.453-0.502,2.27-0.502
			c0.85,0,1.621,0.179,2.313,0.536c0.69,0.356,1.285,0.824,1.785,1.402c0.498,0.578,0.883,1.232,1.155,1.963
			c0.272,0.731,0.408,1.477,0.408,2.236c0,0.805-0.145,1.575-0.434,2.312c-0.289,0.737-0.687,1.386-1.19,1.946
			c-0.504,0.562-1.104,1.009-1.802,1.344C136.217,54.309,135.46,54.476,134.644,54.476z M130.513,48.355
			c0,0.612,0.099,1.205,0.297,1.776c0.198,0.573,0.479,1.08,0.842,1.521c0.362,0.442,0.799,0.794,1.309,1.054
			c0.51,0.262,1.076,0.392,1.699,0.392c0.646,0,1.225-0.139,1.734-0.417c0.51-0.277,0.943-0.64,1.301-1.088
			c0.357-0.447,0.629-0.954,0.816-1.521c0.187-0.566,0.279-1.139,0.279-1.717c0-0.611-0.099-1.204-0.297-1.776
			s-0.482-1.077-0.85-1.513c-0.369-0.437-0.805-0.785-1.309-1.046c-0.505-0.261-1.063-0.391-1.676-0.391
			c-0.646,0-1.224,0.136-1.733,0.407c-0.51,0.272-0.943,0.629-1.3,1.071c-0.357,0.442-0.632,0.946-0.825,1.513
			C130.609,47.188,130.513,47.767,130.513,48.355z"/>
		<path fill="#000000" d="M146.561,54.561c-0.93,0-1.632-0.312-2.107-0.935c-0.477-0.624-0.715-1.553-0.715-2.788v-5.321h1.496
			v5.032c0,1.813,0.629,2.72,1.887,2.72c0.613,0,1.188-0.195,1.727-0.587c0.537-0.391,0.938-0.926,1.198-1.605v-5.56h1.495v7.038
			c0,0.352,0.159,0.533,0.477,0.544v1.292c-0.17,0.022-0.303,0.037-0.399,0.043c-0.097,0.005-0.19,0.008-0.28,0.008
			c-0.295,0-0.541-0.088-0.74-0.264c-0.197-0.176-0.303-0.394-0.314-0.654l-0.033-1.037c-0.396,0.669-0.918,1.182-1.564,1.539
			C148.039,54.382,147.331,54.561,146.561,54.561z"/>
		<path fill="#000000" d="M160.313,46.826c-0.748,0.022-1.408,0.215-1.98,0.577c-0.572,0.363-0.978,0.867-1.216,1.513v5.475h-1.496
			v-8.874h1.395v2.058c0.307-0.612,0.708-1.108,1.207-1.488c0.498-0.379,1.031-0.592,1.598-0.637c0.113,0,0.21,0,0.289,0
			s0.147,0.006,0.204,0.017V46.826z"/>
		<path fill="#000000" d="M172.281,42.32h1.292l4.93,12.07h-1.632l-1.428-3.536h-5.066l-1.411,3.536h-1.632L172.281,42.32z
			 M175.104,49.664l-2.176-5.575l-2.244,5.575H175.104z"/>
		<path fill="#000000" d="M184.453,54.561c-0.714,0-1.416-0.11-2.107-0.332c-0.691-0.221-1.287-0.541-1.785-0.96l0.646-1.003
			c0.521,0.396,1.043,0.694,1.563,0.893c0.521,0.198,1.072,0.297,1.65,0.297c0.646,0,1.158-0.127,1.537-0.382
			c0.381-0.255,0.57-0.614,0.57-1.079c0-0.216-0.051-0.4-0.153-0.553c-0.102-0.153-0.255-0.286-0.459-0.4
			c-0.204-0.112-0.465-0.215-0.782-0.306c-0.316-0.091-0.686-0.187-1.104-0.289c-0.532-0.136-0.991-0.266-1.377-0.391
			c-0.386-0.124-0.703-0.272-0.952-0.442c-0.25-0.17-0.431-0.373-0.544-0.611s-0.17-0.533-0.17-0.885
			c0-0.441,0.087-0.835,0.263-1.182c0.176-0.345,0.417-0.634,0.723-0.866c0.307-0.232,0.666-0.408,1.08-0.527
			s0.858-0.179,1.334-0.179c0.669,0,1.293,0.108,1.871,0.323c0.578,0.216,1.064,0.499,1.461,0.851l-0.68,0.9
			c-0.374-0.328-0.793-0.575-1.258-0.739s-0.941-0.247-1.428-0.247c-0.545,0-1.006,0.117-1.386,0.349
			c-0.38,0.232-0.569,0.604-0.569,1.114c0,0.203,0.037,0.373,0.11,0.51c0.073,0.136,0.195,0.255,0.365,0.356
			c0.171,0.103,0.388,0.193,0.655,0.272c0.266,0.079,0.586,0.164,0.96,0.255c0.589,0.136,1.103,0.274,1.538,0.417
			c0.437,0.142,0.799,0.309,1.088,0.501s0.504,0.419,0.646,0.68c0.142,0.261,0.213,0.578,0.213,0.952
			c0,0.828-0.318,1.485-0.953,1.973S185.529,54.561,184.453,54.561z"/>
		<path fill="#000000" d="M194.449,54.561c-0.715,0-1.417-0.11-2.108-0.332c-0.691-0.221-1.286-0.541-1.785-0.96l0.646-1.003
			c0.521,0.396,1.043,0.694,1.564,0.893s1.071,0.297,1.649,0.297c0.646,0,1.159-0.127,1.538-0.382c0.38-0.255,0.57-0.614,0.57-1.079
			c0-0.216-0.052-0.4-0.154-0.553c-0.102-0.153-0.254-0.286-0.459-0.4c-0.203-0.112-0.465-0.215-0.781-0.306
			c-0.317-0.091-0.686-0.187-1.105-0.289c-0.532-0.136-0.991-0.266-1.377-0.391c-0.385-0.124-0.703-0.272-0.951-0.442
			c-0.25-0.17-0.432-0.373-0.545-0.611s-0.17-0.533-0.17-0.885c0-0.441,0.088-0.835,0.264-1.182
			c0.176-0.345,0.416-0.634,0.723-0.866s0.666-0.408,1.08-0.527c0.413-0.119,0.857-0.179,1.334-0.179
			c0.668,0,1.292,0.108,1.87,0.323c0.578,0.216,1.065,0.499,1.462,0.851l-0.68,0.9c-0.375-0.328-0.794-0.575-1.258-0.739
			c-0.465-0.164-0.941-0.247-1.429-0.247c-0.544,0-1.006,0.117-1.386,0.349c-0.379,0.232-0.568,0.604-0.568,1.114
			c0,0.203,0.036,0.373,0.109,0.51c0.074,0.136,0.195,0.255,0.365,0.356c0.171,0.103,0.389,0.193,0.655,0.272
			s0.587,0.164,0.96,0.255c0.59,0.136,1.103,0.274,1.539,0.417c0.436,0.142,0.799,0.309,1.088,0.501s0.504,0.419,0.646,0.68
			c0.141,0.261,0.212,0.578,0.212,0.952c0,0.828-0.317,1.485-0.952,1.973S195.525,54.561,194.449,54.561z"/>
		<path fill="#000000" d="M204.07,54.561c-0.93,0-1.632-0.312-2.107-0.935c-0.477-0.624-0.715-1.553-0.715-2.788v-5.321h1.496v5.032
			c0,1.813,0.629,2.72,1.887,2.72c0.613,0,1.188-0.195,1.727-0.587c0.537-0.391,0.938-0.926,1.198-1.605v-5.56h1.495v7.038
			c0,0.352,0.159,0.533,0.477,0.544v1.292c-0.17,0.022-0.303,0.037-0.399,0.043c-0.097,0.005-0.19,0.008-0.28,0.008
			c-0.295,0-0.541-0.088-0.74-0.264c-0.197-0.176-0.303-0.394-0.314-0.654l-0.033-1.037c-0.396,0.669-0.918,1.182-1.564,1.539
			C205.549,54.382,204.841,54.561,204.07,54.561z"/>
		<path fill="#000000" d="M217.824,46.826c-0.748,0.022-1.408,0.215-1.98,0.577c-0.572,0.363-0.979,0.867-1.216,1.513v5.475h-1.496
			v-8.874h1.394v2.058c0.307-0.612,0.709-1.108,1.207-1.488c0.499-0.379,1.031-0.592,1.598-0.637c0.113,0,0.211,0,0.289,0
			c0.08,0,0.148,0.006,0.205,0.017V46.826z"/>
		<path fill="#000000" d="M223.178,54.561c-0.419,0-0.81-0.07-1.172-0.213c-0.363-0.141-0.678-0.337-0.943-0.586
			c-0.268-0.249-0.477-0.541-0.63-0.875c-0.153-0.335-0.229-0.7-0.229-1.098c0-0.407,0.091-0.778,0.272-1.113
			c0.181-0.334,0.438-0.62,0.773-0.858c0.334-0.237,0.731-0.425,1.19-0.561s0.96-0.204,1.504-0.204c0.431,0,0.867,0.04,1.309,0.119
			c0.442,0.079,0.834,0.187,1.174,0.322V48.78c0-0.725-0.205-1.294-0.612-1.708c-0.408-0.414-0.986-0.621-1.733-0.621
			c-0.896,0-1.837,0.346-2.822,1.037l-0.494-0.969c1.146-0.771,2.296-1.156,3.451-1.156c1.168,0,2.077,0.313,2.729,0.936
			c0.652,0.623,0.979,1.502,0.979,2.635v3.621c0,0.352,0.158,0.533,0.476,0.544v1.292c-0.159,0.022-0.289,0.039-0.392,0.051
			c-0.102,0.012-0.209,0.018-0.322,0.018c-0.295,0-0.53-0.088-0.705-0.264c-0.176-0.176-0.281-0.389-0.314-0.638l-0.035-0.629
			c-0.396,0.532-0.898,0.938-1.504,1.216C224.519,54.422,223.869,54.561,223.178,54.561z M223.569,53.438
			c0.532,0,1.028-0.099,1.487-0.298c0.459-0.197,0.808-0.461,1.046-0.79c0.215-0.215,0.323-0.437,0.323-0.663v-1.309
			c-0.727-0.283-1.479-0.426-2.262-0.426c-0.748,0-1.357,0.159-1.827,0.477c-0.471,0.317-0.706,0.73-0.706,1.241
			c0,0.249,0.049,0.481,0.145,0.696c0.097,0.216,0.232,0.402,0.408,0.562s0.383,0.283,0.621,0.374S223.297,53.438,223.569,53.438z"
			/>
		<path fill="#000000" d="M239.617,54.391h-1.496v-4.964c0-0.952-0.145-1.644-0.434-2.074s-0.729-0.646-1.317-0.646
			c-0.306,0-0.612,0.059-0.918,0.178s-0.595,0.281-0.867,0.484c-0.272,0.205-0.51,0.448-0.714,0.731s-0.357,0.595-0.459,0.935v5.355
			h-1.496v-8.874h1.359v1.904c0.352-0.624,0.859-1.122,1.521-1.496c0.664-0.374,1.387-0.562,2.168-0.562
			c0.51,0,0.936,0.094,1.275,0.281c0.34,0.187,0.611,0.447,0.816,0.781c0.203,0.335,0.348,0.729,0.433,1.182
			s0.128,0.946,0.128,1.479V54.391z"/>
		<path fill="#000000" d="M242.932,49.937c0-0.623,0.108-1.212,0.324-1.768c0.215-0.556,0.521-1.04,0.918-1.454
			c0.396-0.413,0.869-0.742,1.419-0.986c0.55-0.243,1.165-0.365,1.845-0.365c0.884,0,1.646,0.195,2.286,0.587
			c0.64,0.391,1.125,0.915,1.454,1.572l-1.463,0.459c-0.227-0.419-0.543-0.745-0.951-0.978s-0.861-0.349-1.36-0.349
			c-0.408,0-0.794,0.083-1.156,0.247s-0.675,0.394-0.935,0.688c-0.262,0.295-0.468,0.64-0.621,1.037
			c-0.152,0.396-0.229,0.833-0.229,1.309c0,0.465,0.078,0.901,0.237,1.31c0.159,0.407,0.371,0.762,0.638,1.063
			c0.266,0.3,0.578,0.535,0.936,0.705c0.356,0.17,0.738,0.255,1.146,0.255c0.261,0,0.52-0.036,0.773-0.11
			c0.256-0.074,0.488-0.173,0.697-0.298c0.21-0.124,0.395-0.269,0.553-0.433c0.158-0.165,0.271-0.344,0.34-0.536l1.462,0.442
			c-0.136,0.328-0.325,0.629-0.569,0.9c-0.244,0.272-0.529,0.505-0.858,0.697c-0.329,0.193-0.694,0.346-1.097,0.459
			s-0.824,0.17-1.267,0.17c-0.669,0-1.28-0.125-1.836-0.374s-1.031-0.583-1.428-1.003c-0.397-0.419-0.706-0.909-0.927-1.471
			C243.043,51.152,242.932,50.561,242.932,49.937z"/>
		<path fill="#000000" d="M258.385,54.561c-0.668,0-1.281-0.122-1.836-0.365c-0.555-0.244-1.031-0.575-1.428-0.994
			c-0.396-0.42-0.705-0.91-0.927-1.471c-0.221-0.562-0.331-1.153-0.331-1.777c0-0.623,0.11-1.212,0.331-1.768
			c0.222-0.555,0.532-1.043,0.935-1.462s0.882-0.751,1.438-0.995c0.555-0.243,1.166-0.365,1.836-0.365
			c0.668,0,1.277,0.125,1.827,0.374c0.55,0.25,1.017,0.581,1.402,0.995s0.683,0.895,0.893,1.445c0.21,0.549,0.314,1.119,0.314,1.708
			c0,0.125-0.003,0.237-0.009,0.34s-0.014,0.182-0.025,0.238h-7.361c0.035,0.441,0.137,0.845,0.307,1.207s0.391,0.674,0.663,0.935
			s0.581,0.465,0.927,0.612s0.711,0.221,1.096,0.221c0.272,0,0.539-0.036,0.799-0.11c0.262-0.073,0.505-0.173,0.731-0.298
			c0.227-0.124,0.428-0.277,0.604-0.459c0.176-0.181,0.309-0.385,0.399-0.611l1.292,0.356c-0.147,0.329-0.349,0.629-0.603,0.901
			c-0.256,0.272-0.551,0.507-0.885,0.705s-0.705,0.354-1.113,0.468S258.827,54.561,258.385,54.561z M261.428,49.358
			c-0.033-0.419-0.139-0.808-0.314-1.164c-0.176-0.357-0.396-0.66-0.662-0.909c-0.268-0.25-0.576-0.445-0.928-0.587
			s-0.725-0.213-1.121-0.213s-0.771,0.071-1.123,0.213c-0.351,0.142-0.66,0.34-0.926,0.595c-0.267,0.255-0.482,0.559-0.646,0.91
			c-0.164,0.351-0.264,0.736-0.297,1.155H261.428z"/>
	</g>
</g>
</svg>
